<?xml version="1.0" encoding="UTF-8" standalone="no"?>
<svg
   xmlns:dc="http://purl.org/dc/elements/1.1/"
   xmlns:cc="http://creativecommons.org/ns#"
   xmlns:rdf="http://www.w3.org/1999/02/22-rdf-syntax-ns#"
   xmlns:svg="http://www.w3.org/2000/svg"
   xmlns="http://www.w3.org/2000/svg"
   xmlns:xlink="http://www.w3.org/1999/xlink"
   xmlns:sodipodi="http://sodipodi.sourceforge.net/DTD/sodipodi-0.dtd"
   xmlns:inkscape="http://www.inkscape.org/namespaces/inkscape"
   width="118.31071mm"
   height="118.27735mm"
   viewBox="0 0 118.31071 118.27735"
   version="1.1"
   id="svg8"
   inkscape:version="1.0.1 (3bc2e813f5, 2020-09-07)"
   sodipodi:docname="lizardLogo.svg">
  <defs
     id="defs2">
    <linearGradient
       inkscape:collect="always"
       id="linearGradient885">
      <stop
         style="stop-color:#00ff00;stop-opacity:1"
         offset="0"
         id="stop881" />
      <stop
         style="stop-color:#008d00;stop-opacity:1"
         offset="1"
         id="stop883" />
    </linearGradient>
    <linearGradient
       inkscape:collect="always"
       xlink:href="#linearGradient885"
       id="linearGradient887"
       x1="-308.16177"
       y1="-198.58127"
       x2="-192.16679"
       y2="-59.601105"
       gradientUnits="userSpaceOnUse" />
    <linearGradient
       inkscape:collect="always"
       xlink:href="#linearGradient885"
       id="linearGradient903"
       gradientUnits="userSpaceOnUse"
       x1="-308.16177"
       y1="-198.58127"
       x2="-192.16679"
       y2="-59.601105"
       gradientTransform="translate(-1.1830012e-5)" />
  </defs>
  <sodipodi:namedview
     id="base"
     pagecolor="#ffffff"
     bordercolor="#666666"
     borderopacity="1.0"
     inkscape:pageopacity="0.0"
     inkscape:pageshadow="2"
     inkscape:zoom="1.4"
     inkscape:cx="248.62036"
     inkscape:cy="203.69694"
     inkscape:document-units="mm"
     inkscape:current-layer="g863"
     inkscape:document-rotation="0"
     showgrid="false"
     showborder="true"
     fit-margin-top="0"
     fit-margin-left="0"
     fit-margin-right="0"
     fit-margin-bottom="0"
     inkscape:window-width="1920"
     inkscape:window-height="1137"
     inkscape:window-x="-8"
     inkscape:window-y="-8"
     inkscape:window-maximized="1" />
  <metadata
     id="metadata5">
    <rdf:RDF>
      <cc:Work
         rdf:about="">
        <dc:format>image/svg+xml</dc:format>
        <dc:type
           rdf:resource="http://purl.org/dc/dcmitype/StillImage" />
        <dc:title></dc:title>
      </cc:Work>
    </rdf:RDF>
  </metadata>
  <g
     inkscape:label="Layer 1"
     inkscape:groupmode="layer"
     id="layer1"
     transform="translate(326.43225,220.57585)">
    <g
       id="g863"
       transform="translate(9.6216998,-11.759859)"
       style="fill:url(#linearGradient887);fill-opacity:1">
      <path
         style="fill:url(#linearGradient903);fill-opacity:1;stroke-width:0.264583"
         d="m -261.46547,-90.681875 c -3.03959,-0.537625 -6.12035,-2.243285 -8.03153,-4.44664 -1.99249,-2.29711 -3.41919,-6.032645 -3.43008,-8.980975 -0.006,-1.74211 -0.65296,-4.60285 -1.41779,-6.27346 -0.78959,-1.7247 -2.55002,-3.68424 -3.98969,-4.44095 -1.47568,-0.77564 -4.46153,-0.75676 -7.94939,0.0503 -9.50758,2.19987 -19.45009,-2.59067 -23.82961,-11.48169 -1.74528,-3.54316 -2.10024,-5.15643 -2.09571,-9.525 0.003,-2.96734 0.12149,-4.15871 0.59531,-5.98928 0.70271,-2.71489 0.73088,-3.63167 0.16967,-5.5215 -0.33049,-1.11286 -0.77441,-1.77016 -2.05052,-3.03612 -1.87175,-1.85686 -3.62441,-2.65601 -6.71093,-3.05997 -1.06109,-0.13888 -2.79741,-0.36612 -3.85849,-0.505 -2.60183,-0.34052 -4.50831,-1.11404 -6.55079,-2.65786 -4.14452,-3.13265 -6.19469,-8.42411 -5.18418,-13.38028 0.58759,-2.88194 1.76021,-5.13335 3.70726,-7.11786 5.17392,-5.27347 13.54378,-5.50161 18.92889,-0.51595 2.93624,2.71844 4.11334,5.27662 4.53346,9.85248 0.45842,4.9931 1.70681,7.91001 4.14172,9.67733 1.0979,0.79688 3.56079,1.74881 4.52464,1.74881 0.50443,0 1.64879,-2.55742 2.30907,-5.16031 1.49701,-5.9014 1.53915,-12.53353 0.11314,-17.80531 -0.67675,-2.50183 -1.72536,-4.53912 -3.41461,-6.63404 -2.44871,-3.03678 -3.4542,-5.70233 -3.44913,-9.14368 0.005,-3.61589 1.13193,-6.67323 3.38227,-9.17861 4.07915,-4.54145 10.63014,-5.89131 16.06146,-3.30953 4.85868,2.30958 7.81381,6.97014 7.79874,12.29945 -0.0111,3.93391 -0.62466,5.59204 -3.47976,9.40434 -3.10587,4.14713 -4.24672,8.17828 -4.23774,14.97377 0.006,4.27373 0.49006,7.8474 1.49485,11.02813 1.01855,3.22428 1.00658,3.21637 3.16389,2.0919 4.45942,-2.32441 9.31242,-6.13621 14.04646,-11.03282 5.1554,-5.33244 8.30762,-10.29895 8.88043,-13.99163 0.14673,-0.94588 0.3909,-2.43416 0.54259,-3.30729 0.86488,-4.97792 5.13159,-9.35166 10.31469,-10.57342 2.29327,-0.54057 3.99354,-0.50716 6.47398,0.12723 4.61616,1.18062 8.19859,4.60546 9.64142,9.21729 0.65675,2.09922 0.70495,5.68322 0.10396,7.72932 -1.52986,5.20842 -5.80092,9.01842 -10.96419,9.7806 -3.6899,0.54468 -4.61871,0.79946 -6.73766,1.84818 -3.06834,1.51859 -6.38447,4.11252 -10.46708,8.1875 -4.90679,4.89762 -8.28827,9.23536 -10.48944,13.45579 l -0.92163,1.76709 1.33664,0.60769 c 3.065,1.39347 6.16824,1.95617 11.54568,2.09352 4.38918,0.11211 5.36543,0.0585 7.69349,-0.42222 4.11814,-0.85043 5.85475,-1.68094 9.70968,-4.64352 5.20081,-3.9969 12.65864,-3.47601 17.55546,1.22615 7.75001,7.44194 4.29563,20.37501 -6.17019,23.101 -2.9012,0.75567 -6.83317,0.35145 -9.42039,-0.96846 -0.57014,-0.29086 -2.00603,-1.26805 -3.19087,-2.17154 -3.40971,-2.60003 -6.42136,-3.65709 -11.90576,-4.17879 -5.47214,-0.52054 -12.78707,0.50432 -16.29797,2.28343 l -1.39615,0.70748 0.17224,1.07714 c 0.58138,3.63577 3.37897,6.39423 7.42963,7.32573 0.7276,0.16732 2.51354,0.40732 3.96875,0.53333 4.34206,0.376 7.11162,1.65032 9.66958,4.44913 7.75149,8.48136 2.31392,22.069326 -9.17132,22.918263 -1.00165,0.07404 -2.44005,0.02516 -3.19645,-0.108638 z"
         id="path865" />
    </g>
  </g>
</svg>
